# xmcd CD database file
#
# Track frame offsets:
#	150
#	30978
#	40563
#	66985
#	108688
#	126315
#	150948
#	178808
#	217820
#
# Disc length: 3347 seconds
#
# Revision: 0
# Processed by: cddbd v1.4PL0 Copyright (c) Steve Scherf et al.
# Submitted via: CDex 1.50Beta7
#
DISCID=710d1109
DTITLE=Guy Fricano Cedar Walton and Ron Carter - New York Sessions
DYEAR=1987
DGENRE=Jazz
TTITLE0=Convolution
TTITLE1=Suspended animation adagio
TTITLE2=Suspended animation moderato
TTITLE3=Little sunflower
TTITLE4=Joy spring
TTITLE5=Dahomey blue
TTITLE6=I've never been in love before
TTITLE7=Things ain't what they used to be
TTITLE8=Invitation
EXTD=YEAR: 1987
EXTT0=
EXTT1=
EXTT2=
EXTT3=
EXTT4=
EXTT5=
EXTT6=
EXTT7=
EXTT8=
PLAYORDER=
